<mxfile host="app.diagrams.net" agent="Mozilla/5.0 (Windows NT 10.0; Win64; x64) AppleWebKit/537.36 (KHTML, like Gecko) Chrome/130.0.0.0 Safari/537.36" version="24.8.4">
  <diagram name="Page-1" id="b98fa263-6416-c6ec-5b7d-78bf54ef71d0">
    <mxGraphModel dx="1711" dy="965" grid="1" gridSize="10" guides="1" tooltips="1" connect="1" arrows="1" fold="1" page="1" pageScale="1.5" pageWidth="1169" pageHeight="826" background="none" math="0" shadow="0">
      <root>
        <mxCell id="0" style=";html=1;" />
        <mxCell id="1" style=";html=1;" parent="0" />
        <mxCell id="303ed1de8c2c98b4-2" value="Пользователь" style="whiteSpace=wrap;html=1;rounded=1;shadow=1;strokeWidth=1;fontSize=16;align=center;fillColor=#f5f5f5;strokeColor=#666666;" parent="1" vertex="1">
          <mxGeometry x="764" y="150" width="242" height="40" as="geometry" />
        </mxCell>
        <mxCell id="xBRs0mBnwfpqDEcwCw5a-52" style="edgeStyle=orthogonalEdgeStyle;rounded=0;orthogonalLoop=1;jettySize=auto;html=1;exitX=0.5;exitY=1;exitDx=0;exitDy=0;" edge="1" parent="1" source="303ed1de8c2c98b4-3" target="303ed1de8c2c98b4-4">
          <mxGeometry relative="1" as="geometry" />
        </mxCell>
        <mxCell id="303ed1de8c2c98b4-3" value="Главная страница сайта" style="whiteSpace=wrap;html=1;rounded=1;shadow=1;strokeWidth=1;fontSize=16;align=center;fillColor=#f5f5f5;strokeColor=#666666;" parent="1" vertex="1">
          <mxGeometry x="585" y="245" width="600" height="40" as="geometry" />
        </mxCell>
        <mxCell id="xBRs0mBnwfpqDEcwCw5a-49" value="" style="edgeStyle=orthogonalEdgeStyle;rounded=0;orthogonalLoop=1;jettySize=auto;html=1;" edge="1" parent="1" source="303ed1de8c2c98b4-4" target="303ed1de8c2c98b4-7">
          <mxGeometry relative="1" as="geometry" />
        </mxCell>
        <mxCell id="xBRs0mBnwfpqDEcwCw5a-50" style="edgeStyle=orthogonalEdgeStyle;rounded=0;orthogonalLoop=1;jettySize=auto;html=1;entryX=0.5;entryY=0;entryDx=0;entryDy=0;" edge="1" parent="1" source="303ed1de8c2c98b4-4" target="303ed1de8c2c98b4-5">
          <mxGeometry relative="1" as="geometry" />
        </mxCell>
        <mxCell id="xBRs0mBnwfpqDEcwCw5a-51" style="edgeStyle=orthogonalEdgeStyle;rounded=0;orthogonalLoop=1;jettySize=auto;html=1;exitX=0.5;exitY=1;exitDx=0;exitDy=0;entryX=0.5;entryY=0;entryDx=0;entryDy=0;" edge="1" parent="1" source="303ed1de8c2c98b4-4" target="303ed1de8c2c98b4-6">
          <mxGeometry relative="1" as="geometry" />
        </mxCell>
        <mxCell id="303ed1de8c2c98b4-4" value="Веб-страница &quot;Анализ успеваемости&quot;" style="whiteSpace=wrap;html=1;rounded=1;shadow=1;strokeWidth=1;fontSize=16;align=center;fillColor=#f5f5f5;strokeColor=#666666;" parent="1" vertex="1">
          <mxGeometry x="630" y="335" width="510" height="40" as="geometry" />
        </mxCell>
        <mxCell id="xBRs0mBnwfpqDEcwCw5a-33" value="" style="edgeStyle=orthogonalEdgeStyle;rounded=0;orthogonalLoop=1;jettySize=auto;html=1;" edge="1" parent="1" source="303ed1de8c2c98b4-5" target="xBRs0mBnwfpqDEcwCw5a-20">
          <mxGeometry relative="1" as="geometry" />
        </mxCell>
        <mxCell id="303ed1de8c2c98b4-5" value="Выбор оценок" style="whiteSpace=wrap;html=1;rounded=1;shadow=1;strokeWidth=1;fontSize=16;align=center;fillColor=#f5f5f5;strokeColor=#666666;" parent="1" vertex="1">
          <mxGeometry x="1062" y="450" width="275" height="40" as="geometry" />
        </mxCell>
        <mxCell id="xBRs0mBnwfpqDEcwCw5a-48" value="" style="edgeStyle=orthogonalEdgeStyle;rounded=0;orthogonalLoop=1;jettySize=auto;html=1;" edge="1" parent="1" source="303ed1de8c2c98b4-6" target="xBRs0mBnwfpqDEcwCw5a-34">
          <mxGeometry relative="1" as="geometry" />
        </mxCell>
        <mxCell id="303ed1de8c2c98b4-6" value="Выбор типа отчета" style="whiteSpace=wrap;html=1;rounded=1;shadow=1;strokeWidth=1;fontSize=16;align=center;fillColor=#f5f5f5;strokeColor=#666666;" parent="1" vertex="1">
          <mxGeometry x="380" y="450" width="275" height="40" as="geometry" />
        </mxCell>
        <mxCell id="xBRs0mBnwfpqDEcwCw5a-47" value="" style="edgeStyle=orthogonalEdgeStyle;rounded=0;orthogonalLoop=1;jettySize=auto;html=1;" edge="1" parent="1" source="303ed1de8c2c98b4-7" target="xBRs0mBnwfpqDEcwCw5a-6">
          <mxGeometry relative="1" as="geometry" />
        </mxCell>
        <mxCell id="303ed1de8c2c98b4-7" value="Выбор предметов" style="whiteSpace=wrap;html=1;rounded=1;shadow=1;strokeWidth=1;fontSize=16;align=center;fillColor=#f5f5f5;strokeColor=#666666;" parent="1" vertex="1">
          <mxGeometry x="747.5" y="450" width="275" height="40" as="geometry" />
        </mxCell>
        <mxCell id="303ed1de8c2c98b4-78" style="edgeStyle=orthogonalEdgeStyle;html=1;startSize=6;endFill=0;endSize=6;strokeWidth=1;fontSize=16;rounded=0;endArrow=none;" parent="1" source="303ed1de8c2c98b4-2" target="303ed1de8c2c98b4-3" edge="1">
          <mxGeometry relative="1" as="geometry" />
        </mxCell>
        <mxCell id="303ed1de8c2c98b4-79" style="edgeStyle=orthogonalEdgeStyle;html=1;startSize=6;endFill=0;endSize=6;strokeWidth=1;fontSize=16;rounded=0;endArrow=none;" parent="1" source="303ed1de8c2c98b4-3" target="303ed1de8c2c98b4-4" edge="1">
          <mxGeometry relative="1" as="geometry" />
        </mxCell>
        <mxCell id="xBRs0mBnwfpqDEcwCw5a-6" value="" style="childLayout=tableLayout;recursiveResize=0;shadow=0;fillColor=none;" vertex="1" parent="1">
          <mxGeometry x="750" y="535" width="270" height="140" as="geometry" />
        </mxCell>
        <mxCell id="xBRs0mBnwfpqDEcwCw5a-7" value="" style="shape=tableRow;horizontal=0;startSize=0;swimlaneHead=0;swimlaneBody=0;top=0;left=0;bottom=0;right=0;dropTarget=0;collapsible=0;recursiveResize=0;expand=0;fontStyle=0;fillColor=none;strokeColor=inherit;" vertex="1" parent="xBRs0mBnwfpqDEcwCw5a-6">
          <mxGeometry width="270" height="47" as="geometry" />
        </mxCell>
        <mxCell id="xBRs0mBnwfpqDEcwCw5a-8" value="Предмет 1" style="connectable=0;recursiveResize=0;strokeColor=inherit;fillColor=none;align=center;whiteSpace=wrap;html=1;" vertex="1" parent="xBRs0mBnwfpqDEcwCw5a-7">
          <mxGeometry width="90" height="47" as="geometry">
            <mxRectangle width="90" height="47" as="alternateBounds" />
          </mxGeometry>
        </mxCell>
        <mxCell id="xBRs0mBnwfpqDEcwCw5a-9" value="Предмет&amp;nbsp;2" style="connectable=0;recursiveResize=0;strokeColor=inherit;fillColor=none;align=center;whiteSpace=wrap;html=1;" vertex="1" parent="xBRs0mBnwfpqDEcwCw5a-7">
          <mxGeometry x="90" width="90" height="47" as="geometry">
            <mxRectangle width="90" height="47" as="alternateBounds" />
          </mxGeometry>
        </mxCell>
        <mxCell id="xBRs0mBnwfpqDEcwCw5a-10" value="Предмет&amp;nbsp;3" style="connectable=0;recursiveResize=0;strokeColor=inherit;fillColor=none;align=center;whiteSpace=wrap;html=1;" vertex="1" parent="xBRs0mBnwfpqDEcwCw5a-7">
          <mxGeometry x="180" width="90" height="47" as="geometry">
            <mxRectangle width="90" height="47" as="alternateBounds" />
          </mxGeometry>
        </mxCell>
        <mxCell id="xBRs0mBnwfpqDEcwCw5a-11" style="shape=tableRow;horizontal=0;startSize=0;swimlaneHead=0;swimlaneBody=0;top=0;left=0;bottom=0;right=0;dropTarget=0;collapsible=0;recursiveResize=0;expand=0;fontStyle=0;fillColor=none;strokeColor=inherit;" vertex="1" parent="xBRs0mBnwfpqDEcwCw5a-6">
          <mxGeometry y="47" width="270" height="46" as="geometry" />
        </mxCell>
        <mxCell id="xBRs0mBnwfpqDEcwCw5a-12" value="Предмет&amp;nbsp;4" style="connectable=0;recursiveResize=0;strokeColor=inherit;fillColor=none;align=center;whiteSpace=wrap;html=1;" vertex="1" parent="xBRs0mBnwfpqDEcwCw5a-11">
          <mxGeometry width="90" height="46" as="geometry">
            <mxRectangle width="90" height="46" as="alternateBounds" />
          </mxGeometry>
        </mxCell>
        <mxCell id="xBRs0mBnwfpqDEcwCw5a-13" value="Предмет&amp;nbsp;5" style="connectable=0;recursiveResize=0;strokeColor=inherit;fillColor=none;align=center;whiteSpace=wrap;html=1;" vertex="1" parent="xBRs0mBnwfpqDEcwCw5a-11">
          <mxGeometry x="90" width="90" height="46" as="geometry">
            <mxRectangle width="90" height="46" as="alternateBounds" />
          </mxGeometry>
        </mxCell>
        <mxCell id="xBRs0mBnwfpqDEcwCw5a-14" value="Предмет&amp;nbsp;6" style="connectable=0;recursiveResize=0;strokeColor=inherit;fillColor=none;align=center;whiteSpace=wrap;html=1;" vertex="1" parent="xBRs0mBnwfpqDEcwCw5a-11">
          <mxGeometry x="180" width="90" height="46" as="geometry">
            <mxRectangle width="90" height="46" as="alternateBounds" />
          </mxGeometry>
        </mxCell>
        <mxCell id="xBRs0mBnwfpqDEcwCw5a-15" style="shape=tableRow;horizontal=0;startSize=0;swimlaneHead=0;swimlaneBody=0;top=0;left=0;bottom=0;right=0;dropTarget=0;collapsible=0;recursiveResize=0;expand=0;fontStyle=0;fillColor=none;strokeColor=inherit;" vertex="1" parent="xBRs0mBnwfpqDEcwCw5a-6">
          <mxGeometry y="93" width="270" height="47" as="geometry" />
        </mxCell>
        <mxCell id="xBRs0mBnwfpqDEcwCw5a-16" value="Предмет&amp;nbsp;7" style="connectable=0;recursiveResize=0;strokeColor=inherit;fillColor=none;align=center;whiteSpace=wrap;html=1;" vertex="1" parent="xBRs0mBnwfpqDEcwCw5a-15">
          <mxGeometry width="90" height="47" as="geometry">
            <mxRectangle width="90" height="47" as="alternateBounds" />
          </mxGeometry>
        </mxCell>
        <mxCell id="xBRs0mBnwfpqDEcwCw5a-17" value="Предмет&amp;nbsp;8" style="connectable=0;recursiveResize=0;strokeColor=inherit;fillColor=none;align=center;whiteSpace=wrap;html=1;" vertex="1" parent="xBRs0mBnwfpqDEcwCw5a-15">
          <mxGeometry x="90" width="90" height="47" as="geometry">
            <mxRectangle width="90" height="47" as="alternateBounds" />
          </mxGeometry>
        </mxCell>
        <mxCell id="xBRs0mBnwfpqDEcwCw5a-18" value="Предмет&amp;nbsp;9" style="connectable=0;recursiveResize=0;strokeColor=inherit;fillColor=none;align=center;whiteSpace=wrap;html=1;" vertex="1" parent="xBRs0mBnwfpqDEcwCw5a-15">
          <mxGeometry x="180" width="90" height="47" as="geometry">
            <mxRectangle width="90" height="47" as="alternateBounds" />
          </mxGeometry>
        </mxCell>
        <mxCell id="xBRs0mBnwfpqDEcwCw5a-20" value="" style="childLayout=tableLayout;recursiveResize=0;shadow=0;fillColor=none;" vertex="1" parent="1">
          <mxGeometry x="1109.5" y="535" width="180" height="93" as="geometry" />
        </mxCell>
        <mxCell id="xBRs0mBnwfpqDEcwCw5a-21" value="" style="shape=tableRow;horizontal=0;startSize=0;swimlaneHead=0;swimlaneBody=0;top=0;left=0;bottom=0;right=0;dropTarget=0;collapsible=0;recursiveResize=0;expand=0;fontStyle=0;fillColor=none;strokeColor=inherit;" vertex="1" parent="xBRs0mBnwfpqDEcwCw5a-20">
          <mxGeometry width="180" height="47" as="geometry" />
        </mxCell>
        <mxCell id="xBRs0mBnwfpqDEcwCw5a-22" value="Все" style="connectable=0;recursiveResize=0;strokeColor=inherit;fillColor=none;align=center;whiteSpace=wrap;html=1;" vertex="1" parent="xBRs0mBnwfpqDEcwCw5a-21">
          <mxGeometry width="60" height="47" as="geometry">
            <mxRectangle width="60" height="47" as="alternateBounds" />
          </mxGeometry>
        </mxCell>
        <mxCell id="xBRs0mBnwfpqDEcwCw5a-23" value="Неуд" style="connectable=0;recursiveResize=0;strokeColor=inherit;fillColor=none;align=center;whiteSpace=wrap;html=1;" vertex="1" parent="xBRs0mBnwfpqDEcwCw5a-21">
          <mxGeometry x="60" width="60" height="47" as="geometry">
            <mxRectangle width="60" height="47" as="alternateBounds" />
          </mxGeometry>
        </mxCell>
        <mxCell id="xBRs0mBnwfpqDEcwCw5a-24" value="Удов" style="connectable=0;recursiveResize=0;strokeColor=inherit;fillColor=none;align=center;whiteSpace=wrap;html=1;" vertex="1" parent="xBRs0mBnwfpqDEcwCw5a-21">
          <mxGeometry x="120" width="60" height="47" as="geometry">
            <mxRectangle width="60" height="47" as="alternateBounds" />
          </mxGeometry>
        </mxCell>
        <mxCell id="xBRs0mBnwfpqDEcwCw5a-25" style="shape=tableRow;horizontal=0;startSize=0;swimlaneHead=0;swimlaneBody=0;top=0;left=0;bottom=0;right=0;dropTarget=0;collapsible=0;recursiveResize=0;expand=0;fontStyle=0;fillColor=none;strokeColor=inherit;" vertex="1" parent="xBRs0mBnwfpqDEcwCw5a-20">
          <mxGeometry y="47" width="180" height="46" as="geometry" />
        </mxCell>
        <mxCell id="xBRs0mBnwfpqDEcwCw5a-26" value="Хор" style="connectable=0;recursiveResize=0;strokeColor=inherit;fillColor=none;align=center;whiteSpace=wrap;html=1;" vertex="1" parent="xBRs0mBnwfpqDEcwCw5a-25">
          <mxGeometry width="60" height="46" as="geometry">
            <mxRectangle width="60" height="46" as="alternateBounds" />
          </mxGeometry>
        </mxCell>
        <mxCell id="xBRs0mBnwfpqDEcwCw5a-27" value="Отл" style="connectable=0;recursiveResize=0;strokeColor=inherit;fillColor=none;align=center;whiteSpace=wrap;html=1;" vertex="1" parent="xBRs0mBnwfpqDEcwCw5a-25">
          <mxGeometry x="60" width="60" height="46" as="geometry">
            <mxRectangle width="60" height="46" as="alternateBounds" />
          </mxGeometry>
        </mxCell>
        <mxCell id="xBRs0mBnwfpqDEcwCw5a-28" value="Не сдано" style="connectable=0;recursiveResize=0;strokeColor=inherit;fillColor=none;align=center;whiteSpace=wrap;html=1;" vertex="1" parent="xBRs0mBnwfpqDEcwCw5a-25">
          <mxGeometry x="120" width="60" height="46" as="geometry">
            <mxRectangle width="60" height="46" as="alternateBounds" />
          </mxGeometry>
        </mxCell>
        <mxCell id="xBRs0mBnwfpqDEcwCw5a-34" value="" style="childLayout=tableLayout;recursiveResize=0;shadow=0;fillColor=none;" vertex="1" parent="1">
          <mxGeometry x="332.5" y="535" width="370" height="45" as="geometry" />
        </mxCell>
        <mxCell id="xBRs0mBnwfpqDEcwCw5a-35" value="" style="shape=tableRow;horizontal=0;startSize=0;swimlaneHead=0;swimlaneBody=0;top=0;left=0;bottom=0;right=0;dropTarget=0;collapsible=0;recursiveResize=0;expand=0;fontStyle=0;fillColor=none;strokeColor=inherit;" vertex="1" parent="xBRs0mBnwfpqDEcwCw5a-34">
          <mxGeometry width="370" height="45" as="geometry" />
        </mxCell>
        <mxCell id="xBRs0mBnwfpqDEcwCw5a-36" value="По дисциплинам" style="connectable=0;recursiveResize=0;strokeColor=inherit;fillColor=none;align=center;whiteSpace=wrap;html=1;" vertex="1" parent="xBRs0mBnwfpqDEcwCw5a-35">
          <mxGeometry width="123" height="45" as="geometry">
            <mxRectangle width="123" height="45" as="alternateBounds" />
          </mxGeometry>
        </mxCell>
        <mxCell id="xBRs0mBnwfpqDEcwCw5a-37" value="Качество обучения" style="connectable=0;recursiveResize=0;strokeColor=inherit;fillColor=none;align=center;whiteSpace=wrap;html=1;" vertex="1" parent="xBRs0mBnwfpqDEcwCw5a-35">
          <mxGeometry x="123" width="123" height="45" as="geometry">
            <mxRectangle width="123" height="45" as="alternateBounds" />
          </mxGeometry>
        </mxCell>
        <mxCell id="xBRs0mBnwfpqDEcwCw5a-38" value="Ожидания" style="connectable=0;recursiveResize=0;strokeColor=inherit;fillColor=none;align=center;whiteSpace=wrap;html=1;" vertex="1" parent="xBRs0mBnwfpqDEcwCw5a-35">
          <mxGeometry x="246" width="124" height="45" as="geometry">
            <mxRectangle width="124" height="45" as="alternateBounds" />
          </mxGeometry>
        </mxCell>
        <mxCell id="xBRs0mBnwfpqDEcwCw5a-84" style="edgeStyle=orthogonalEdgeStyle;rounded=0;orthogonalLoop=1;jettySize=auto;html=1;entryX=0.5;entryY=0;entryDx=0;entryDy=0;" edge="1" parent="1" source="xBRs0mBnwfpqDEcwCw5a-64" target="xBRs0mBnwfpqDEcwCw5a-74">
          <mxGeometry relative="1" as="geometry" />
        </mxCell>
        <mxCell id="xBRs0mBnwfpqDEcwCw5a-88" style="edgeStyle=orthogonalEdgeStyle;rounded=0;orthogonalLoop=1;jettySize=auto;html=1;exitX=0.5;exitY=1;exitDx=0;exitDy=0;entryX=0.5;entryY=0;entryDx=0;entryDy=0;" edge="1" parent="1" source="xBRs0mBnwfpqDEcwCw5a-64" target="xBRs0mBnwfpqDEcwCw5a-80">
          <mxGeometry relative="1" as="geometry" />
        </mxCell>
        <mxCell id="xBRs0mBnwfpqDEcwCw5a-89" style="edgeStyle=orthogonalEdgeStyle;rounded=0;orthogonalLoop=1;jettySize=auto;html=1;exitX=0.5;exitY=1;exitDx=0;exitDy=0;entryX=0.5;entryY=0;entryDx=0;entryDy=0;" edge="1" parent="1" source="xBRs0mBnwfpqDEcwCw5a-64" target="xBRs0mBnwfpqDEcwCw5a-76">
          <mxGeometry relative="1" as="geometry" />
        </mxCell>
        <mxCell id="xBRs0mBnwfpqDEcwCw5a-64" value="" style="rounded=1;whiteSpace=wrap;html=1;" vertex="1" parent="1">
          <mxGeometry x="801.5" y="780" width="167" height="60" as="geometry" />
        </mxCell>
        <mxCell id="xBRs0mBnwfpqDEcwCw5a-69" style="edgeStyle=orthogonalEdgeStyle;rounded=0;orthogonalLoop=1;jettySize=auto;html=1;exitX=0.5;exitY=1;exitDx=0;exitDy=0;entryX=0;entryY=0.5;entryDx=0;entryDy=0;" edge="1" parent="1" source="xBRs0mBnwfpqDEcwCw5a-35" target="xBRs0mBnwfpqDEcwCw5a-64">
          <mxGeometry relative="1" as="geometry" />
        </mxCell>
        <mxCell id="xBRs0mBnwfpqDEcwCw5a-70" style="edgeStyle=orthogonalEdgeStyle;rounded=0;orthogonalLoop=1;jettySize=auto;html=1;exitX=0.5;exitY=1;exitDx=0;exitDy=0;entryX=1;entryY=0.5;entryDx=0;entryDy=0;" edge="1" parent="1" source="xBRs0mBnwfpqDEcwCw5a-25" target="xBRs0mBnwfpqDEcwCw5a-64">
          <mxGeometry relative="1" as="geometry" />
        </mxCell>
        <mxCell id="xBRs0mBnwfpqDEcwCw5a-71" style="edgeStyle=orthogonalEdgeStyle;rounded=0;orthogonalLoop=1;jettySize=auto;html=1;exitX=0.5;exitY=1;exitDx=0;exitDy=0;entryX=0.5;entryY=0;entryDx=0;entryDy=0;" edge="1" parent="1" source="xBRs0mBnwfpqDEcwCw5a-15" target="xBRs0mBnwfpqDEcwCw5a-64">
          <mxGeometry relative="1" as="geometry" />
        </mxCell>
        <mxCell id="xBRs0mBnwfpqDEcwCw5a-73" value="Отчет" style="text;strokeColor=none;fillColor=none;html=1;fontSize=24;fontStyle=1;verticalAlign=middle;align=center;" vertex="1" parent="1">
          <mxGeometry x="835" y="790" width="100" height="40" as="geometry" />
        </mxCell>
        <mxCell id="xBRs0mBnwfpqDEcwCw5a-74" value="" style="rounded=0;whiteSpace=wrap;html=1;" vertex="1" parent="1">
          <mxGeometry x="820" y="950" width="130" height="60" as="geometry" />
        </mxCell>
        <mxCell id="xBRs0mBnwfpqDEcwCw5a-75" value="Чат" style="text;strokeColor=none;fillColor=none;html=1;fontSize=24;fontStyle=1;verticalAlign=middle;align=center;" vertex="1" parent="1">
          <mxGeometry x="830" y="960" width="100" height="40" as="geometry" />
        </mxCell>
        <mxCell id="xBRs0mBnwfpqDEcwCw5a-76" value="" style="rounded=0;whiteSpace=wrap;html=1;" vertex="1" parent="1">
          <mxGeometry x="970" y="950" width="148.5" height="60" as="geometry" />
        </mxCell>
        <mxCell id="xBRs0mBnwfpqDEcwCw5a-77" value="Отправить" style="text;strokeColor=none;fillColor=none;html=1;fontSize=24;fontStyle=1;verticalAlign=middle;align=center;" vertex="1" parent="1">
          <mxGeometry x="995" y="960" width="98.5" height="40" as="geometry" />
        </mxCell>
        <mxCell id="xBRs0mBnwfpqDEcwCw5a-80" value="" style="rounded=0;whiteSpace=wrap;html=1;" vertex="1" parent="1">
          <mxGeometry x="600" y="950" width="190" height="60" as="geometry" />
        </mxCell>
        <mxCell id="xBRs0mBnwfpqDEcwCw5a-81" value="Рекомендации" style="text;strokeColor=none;fillColor=none;html=1;fontSize=24;fontStyle=1;verticalAlign=middle;align=center;" vertex="1" parent="1">
          <mxGeometry x="645.75" y="960" width="98.5" height="40" as="geometry" />
        </mxCell>
        <mxCell id="xBRs0mBnwfpqDEcwCw5a-90" value="Открыть сайт" style="text;strokeColor=none;fillColor=none;html=1;fontSize=24;fontStyle=1;verticalAlign=middle;align=center;" vertex="1" parent="1">
          <mxGeometry x="1237" y="160" width="100" height="40" as="geometry" />
        </mxCell>
        <mxCell id="xBRs0mBnwfpqDEcwCw5a-91" value="Перейти на страницу компонента" style="text;strokeColor=none;fillColor=none;html=1;fontSize=24;fontStyle=1;verticalAlign=middle;align=center;" vertex="1" parent="1">
          <mxGeometry x="1350" y="285" width="100" height="40" as="geometry" />
        </mxCell>
        <mxCell id="xBRs0mBnwfpqDEcwCw5a-95" value="Выбрать тип отчета" style="text;strokeColor=none;fillColor=none;html=1;fontSize=24;fontStyle=1;verticalAlign=middle;align=center;" vertex="1" parent="1">
          <mxGeometry x="467.5" y="375" width="100" height="40" as="geometry" />
        </mxCell>
        <mxCell id="xBRs0mBnwfpqDEcwCw5a-152" value="Выборка предметов" style="text;strokeColor=none;fillColor=none;html=1;fontSize=24;fontStyle=1;verticalAlign=middle;align=center;" vertex="1" parent="1">
          <mxGeometry x="840" y="410" width="100" height="40" as="geometry" />
        </mxCell>
        <mxCell id="xBRs0mBnwfpqDEcwCw5a-153" value="Выборка оценок" style="text;strokeColor=none;fillColor=none;html=1;fontSize=24;fontStyle=1;verticalAlign=middle;align=center;" vertex="1" parent="1">
          <mxGeometry x="1230" y="375" width="100" height="40" as="geometry" />
        </mxCell>
        <mxCell id="xBRs0mBnwfpqDEcwCw5a-160" value="Открыть рекомендации по результатам отчета" style="text;strokeColor=none;fillColor=none;html=1;fontSize=24;fontStyle=1;verticalAlign=middle;align=center;" vertex="1" parent="1">
          <mxGeometry x="430" y="1030" width="100" height="40" as="geometry" />
        </mxCell>
        <mxCell id="xBRs0mBnwfpqDEcwCw5a-162" value="Открыть чат с учителем" style="text;strokeColor=none;fillColor=none;html=1;fontSize=24;fontStyle=1;verticalAlign=middle;align=center;" vertex="1" parent="1">
          <mxGeometry x="835" y="1080" width="100" height="40" as="geometry" />
        </mxCell>
        <mxCell id="xBRs0mBnwfpqDEcwCw5a-163" value="Сохранить отчет в нужном формате или Отправить эп" style="text;strokeColor=none;fillColor=none;html=1;fontSize=24;fontStyle=1;verticalAlign=middle;align=center;" vertex="1" parent="1">
          <mxGeometry x="1260" y="1030" width="100" height="40" as="geometry" />
        </mxCell>
      </root>
    </mxGraphModel>
  </diagram>
</mxfile>
